<svg xmlns="http://www.w3.org/2000/svg" width="16" height="16" viewBox="0 0 16 16">
    <g fill="none" fill-rule="evenodd">
        <path d="M0 0L20 0 20 20 0 20z" transform="translate(-2 -2)"/>
        <path fill="#212121" fill-rule="nonzero" d="M16.675 12.817c-1.025 0-2.017-.167-2.942-.467-.291-.1-.616-.025-.841.2l-1.309 1.642c-2.358-1.125-4.566-3.25-5.741-5.692l1.625-1.383c.225-.234.291-.559.2-.85C7.358 5.342 7.2 4.35 7.2 3.325c0-.45-.375-.825-.825-.825H3.492c-.45 0-.992.2-.992.825C2.5 11.067 8.942 17.5 16.675 17.5c.592 0 .825-.525.825-.983v-2.875c0-.45-.375-.825-.825-.825z" transform="translate(-2 -2)"/>
    </g>
</svg>
